0
SECTION
2
HEADER
9
$INSUNITS
70
4
0
ENDSEC
0
SECTION
2
TABLES
0
TABLE
2
LTYPE
0
LTYPE
72
65
70
0
2
CONTINUOUS
3
______
73
0
40
0
0
LTYPE
72
65
70
0
2
DASHED
3
_ _ _ 
73
2
40
7.5
49
5
49
-2.5
0
LTYPE
72
65
70
0
2
DOTTED
3
. . . 
73
2
40
1.5
49
0.5
49
-1
0
ENDTAB
0
TABLE
2
LAYER
0
ENDTAB
0
ENDSEC
0
SECTION
2
ENTITIES
0
LINE
8
0
6
CONTINUOUS
10
-8.525
20
-9.525
11
27.575
21
-9.525
0
LINE
8
0
6
CONTINUOUS
10
-9.525
20
-8.525
11
-9.525
21
46.625
0
LINE
8
0
6
CONTINUOUS
10
-8.525
20
47.625
11
27.575
21
47.625
0
LINE
8
0
6
CONTINUOUS
10
28.575
20
-8.525
11
28.575
21
-5.525
0
LINE
8
0
6
CONTINUOUS
10
29.575
20
-4.525
11
46.6
21
-4.525
0
LINE
8
0
6
CONTINUOUS
10
29.575
20
52.625
11
46.625
21
52.625
0
LINE
8
0
6
CONTINUOUS
10
28.575
20
51.625
11
28.575
21
48.625
0
LINE
8
0
6
CONTINUOUS
10
66.675
20
53.625
11
66.675
21
54.625
0
LINE
8
0
6
CONTINUOUS
10
65.675
20
55.625
11
48.625
21
55.625
0
LINE
8
0
6
CONTINUOUS
10
47.625
20
54.625
11
47.625
21
53.625
0
LINE
8
0
6
CONTINUOUS
10
85.725
20
51.625
11
85.725
21
52.625
0
LINE
8
0
6
CONTINUOUS
10
67.675
20
52.625
11
85.725
21
52.625
0
LINE
8
0
6
CONTINUOUS
10
86.725
20
50.625
11
104.275
21
50.625
0
LINE
8
0
6
CONTINUOUS
10
48.625
20
-26.575
11
80
21
-26.575
0
LINE
8
0
6
CONTINUOUS
10
47.625
20
-12
11
47.625
21
-25.575
0
LINE
8
0
6
CONTINUOUS
10
89.3043137
20
-27.5340742
11
103.1599612
21
-31.2466838
0
LINE
8
0
6
CONTINUOUS
10
104.384706
20
-30.539577
11
108.7975708
21
-14.0705416
0
LINE
8
0
6
CONTINUOUS
10
108.090464
20
-12.8457968
11
104.9339075
21
-12
0
LINE
8
0
6
CONTINUOUS
10
204.975
20
-9.525
11
241.075
21
-9.525
0
LINE
8
0
6
CONTINUOUS
10
242.075
20
-8.525
11
242.075
21
46.625
0
LINE
8
0
6
CONTINUOUS
10
204.975
20
47.625
11
241.075
21
47.625
0
LINE
8
0
6
CONTINUOUS
10
203.975
20
-5.525
11
203.975
21
-8.525
0
LINE
8
0
6
CONTINUOUS
10
185.95
20
-4.525
11
202.975
21
-4.525
0
LINE
8
0
6
CONTINUOUS
10
203.975
20
48.625
11
203.975
21
51.625
0
LINE
8
0
6
CONTINUOUS
10
185.925
20
52.625
11
202.975
21
52.625
0
LINE
8
0
6
CONTINUOUS
10
184.925
20
53.625
11
184.925
21
54.625
0
LINE
8
0
6
CONTINUOUS
10
183.925
20
55.625
11
166.875
21
55.625
0
LINE
8
0
6
CONTINUOUS
10
165.875
20
54.625
11
165.875
21
53.625
0
LINE
8
0
6
CONTINUOUS
10
147.825
20
52.625
11
164.875
21
52.625
0
LINE
8
0
6
CONTINUOUS
10
146.825
20
51.625
11
146.825
21
50.625
0
LINE
8
0
6
CONTINUOUS
10
129.275
20
50.625
11
146.825
21
50.625
0
LINE
8
0
6
CONTINUOUS
10
152.55
20
-26.575
11
183.925
21
-26.575
0
LINE
8
0
6
CONTINUOUS
10
184.925
20
-25.575
11
184.925
21
-12
0
LINE
8
0
6
CONTINUOUS
10
129.3900388
20
-31.2466838
11
143.2456863
21
-27.5340742
0
LINE
8
0
6
CONTINUOUS
10
127.6160925
20
-12
11
124.459536
21
-12.8457968
0
LINE
8
0
6
CONTINUOUS
10
123.7524292
20
-14.0705416
11
128.165294
21
-30.539577
0
LINE
8
0
6
CONTINUOUS
10
47.6
20
-12
11
47.625
21
-12
0
LINE
8
0
6
CONTINUOUS
10
104.9339075
20
-12
11
105
21
-12
0
LINE
8
0
6
CONTINUOUS
10
106
20
-11
11
106
21
-7
0
LINE
8
0
6
CONTINUOUS
10
47.6
20
-5.525
11
47.6
21
-12
0
LINE
8
0
6
CONTINUOUS
10
127.55
20
-12
11
127.6160925
21
-12
0
LINE
8
0
6
CONTINUOUS
10
184.925
20
-12
11
184.95
21
-12
0
LINE
8
0
6
CONTINUOUS
10
184.95
20
-12
11
184.95
21
-5.525
0
LINE
8
0
6
CONTINUOUS
10
126.55
20
-7
11
126.55
21
-11
0
LINE
8
0
6
CONTINUOUS
10
80
20
-27.5
11
89.0454947
21
-27.5
0
LINE
8
0
6
CONTINUOUS
10
80
20
-26.575
11
80
21
-27.5
0
LINE
8
0
6
CONTINUOUS
10
143.5045053
20
-27.5
11
152.55
21
-27.5
0
LINE
8
0
6
CONTINUOUS
10
152.55
20
-27.5
11
152.55
21
-26.575
0
LINE
8
0
6
CONTINUOUS
10
107
20
-6
11
125.55
21
-6
0
LINE
8
0
6
CONTINUOUS
10
128.275
20
51.625
11
128.275
21
52.5
0
LINE
8
0
6
CONTINUOUS
10
128.275
20
52.5
11
105.275
21
52.5
0
LINE
8
0
6
CONTINUOUS
10
104.275
20
51.5
11
104.275
21
50.625
0
ARC
8
0
6
CONTINUOUS
10
27.575
20
-8.525
40
1
50
270
51
0
0
ARC
8
0
6
CONTINUOUS
10
29.575
20
-5.525
40
1
50
90
51
180
0
ARC
8
0
6
CONTINUOUS
10
46.6
20
-5.525
40
1
50
0
51
90
0
ARC
8
0
6
CONTINUOUS
10
48.625
20
-25.575
40
1
50
180
51
270
0
ARC
8
0
6
CONTINUOUS
10
89.0454947
20
-28.5
40
1
50
75.0000021
51
90
0
ARC
8
0
6
CONTINUOUS
10
103.4187802
20
-30.280758
40
1
50
255.0000021
51
345.0000021
0
ARC
8
0
6
CONTINUOUS
10
107.831645
20
-13.8117226
40
1
50
345.0000021
51
75.0000021
0
ARC
8
0
6
CONTINUOUS
10
105
20
-11
40
1
50
270
51
0
0
ARC
8
0
6
CONTINUOUS
10
107
20
-7
40
1
50
90
51
180
0
ARC
8
0
6
CONTINUOUS
10
125.55
20
-7
40
1
50
0
51
90
0
ARC
8
0
6
CONTINUOUS
10
127.55
20
-11
40
1
50
180
51
270
0
ARC
8
0
6
CONTINUOUS
10
124.718355
20
-13.8117226
40
1
50
104.9999979
51
194.9999979
0
ARC
8
0
6
CONTINUOUS
10
129.1312198
20
-30.280758
40
1
50
194.9999979
51
284.9999979
0
ARC
8
0
6
CONTINUOUS
10
143.5045053
20
-28.5
40
1
50
90
51
104.9999979
0
ARC
8
0
6
CONTINUOUS
10
183.925
20
-25.575
40
1
50
270
51
0
0
ARC
8
0
6
CONTINUOUS
10
185.95
20
-5.525
40
1
50
90
51
180
0
ARC
8
0
6
CONTINUOUS
10
202.975
20
-5.525
40
1
50
0
51
90
0
ARC
8
0
6
CONTINUOUS
10
204.975
20
-8.525
40
1
50
180
51
270
0
ARC
8
0
6
CONTINUOUS
10
241.075
20
-8.525
40
1
50
270
51
0
0
ARC
8
0
6
CONTINUOUS
10
241.075
20
46.625
40
1
50
0
51
90
0
ARC
8
0
6
CONTINUOUS
10
204.975
20
48.625
40
1
50
180
51
270
0
ARC
8
0
6
CONTINUOUS
10
202.975
20
51.625
40
1
50
0
51
90
0
ARC
8
0
6
CONTINUOUS
10
185.925
20
53.625
40
1
50
180
51
270
0
ARC
8
0
6
CONTINUOUS
10
183.925
20
54.625
40
1
50
0
51
90
0
ARC
8
0
6
CONTINUOUS
10
166.875
20
54.625
40
1
50
90
51
180
0
ARC
8
0
6
CONTINUOUS
10
164.875
20
53.625
40
1
50
270
51
0
0
ARC
8
0
6
CONTINUOUS
10
147.825
20
51.625
40
1
50
90
51
180
0
ARC
8
0
6
CONTINUOUS
10
129.275
20
51.625
40
1
50
180
51
270
0
ARC
8
0
6
CONTINUOUS
10
105.275
20
51.5
40
1
50
90
51
180
0
ARC
8
0
6
CONTINUOUS
10
86.725
20
51.625
40
1
50
180
51
270
0
ARC
8
0
6
CONTINUOUS
10
67.675
20
53.625
40
1
50
180
51
270
0
ARC
8
0
6
CONTINUOUS
10
65.675
20
54.625
40
1
50
0
51
90
0
ARC
8
0
6
CONTINUOUS
10
48.625
20
54.625
40
1
50
90
51
180
0
ARC
8
0
6
CONTINUOUS
10
46.625
20
53.625
40
1
50
270
51
0
0
ARC
8
0
6
CONTINUOUS
10
29.575
20
51.625
40
1
50
90
51
180
0
ARC
8
0
6
CONTINUOUS
10
27.575
20
48.625
40
1
50
270
51
0
0
ARC
8
0
6
CONTINUOUS
10
-8.525
20
46.625
40
1
50
90
51
180
0
ARC
8
0
6
CONTINUOUS
10
-8.525
20
-8.525
40
1
50
180
51
270
0
LINE
8
0
6
CONTINUOUS
10
-7
20
-7
11
7
21
-7
0
LINE
8
0
6
CONTINUOUS
10
7
20
-7
11
7
21
7
0
LINE
8
0
6
CONTINUOUS
10
7
20
7
11
-7
21
7
0
LINE
8
0
6
CONTINUOUS
10
-7
20
7
11
-7
21
-7
0
LINE
8
0
6
CONTINUOUS
10
-7
20
12.05
11
7
21
12.05
0
LINE
8
0
6
CONTINUOUS
10
7
20
12.05
11
7
21
26.05
0
LINE
8
0
6
CONTINUOUS
10
7
20
26.05
11
-7
21
26.05
0
LINE
8
0
6
CONTINUOUS
10
-7
20
26.05
11
-7
21
12.05
0
LINE
8
0
6
CONTINUOUS
10
-7
20
31.1
11
7
21
31.1
0
LINE
8
0
6
CONTINUOUS
10
7
20
31.1
11
7
21
45.1
0
LINE
8
0
6
CONTINUOUS
10
7
20
45.1
11
-7
21
45.1
0
LINE
8
0
6
CONTINUOUS
10
-7
20
45.1
11
-7
21
31.1
0
LINE
8
0
6
CONTINUOUS
10
12.05
20
-7
11
26.05
21
-7
0
LINE
8
0
6
CONTINUOUS
10
26.05
20
-7
11
26.05
21
7
0
LINE
8
0
6
CONTINUOUS
10
26.05
20
7
11
12.05
21
7
0
LINE
8
0
6
CONTINUOUS
10
12.05
20
7
11
12.05
21
-7
0
LINE
8
0
6
CONTINUOUS
10
12.05
20
12.05
11
26.05
21
12.05
0
LINE
8
0
6
CONTINUOUS
10
26.05
20
12.05
11
26.05
21
26.05
0
LINE
8
0
6
CONTINUOUS
10
26.05
20
26.05
11
12.05
21
26.05
0
LINE
8
0
6
CONTINUOUS
10
12.05
20
26.05
11
12.05
21
12.05
0
LINE
8
0
6
CONTINUOUS
10
12.05
20
31.1
11
26.05
21
31.1
0
LINE
8
0
6
CONTINUOUS
10
26.05
20
31.1
11
26.05
21
45.1
0
LINE
8
0
6
CONTINUOUS
10
26.05
20
45.1
11
12.05
21
45.1
0
LINE
8
0
6
CONTINUOUS
10
12.05
20
45.1
11
12.05
21
31.1
0
LINE
8
0
6
CONTINUOUS
10
31.1
20
-2
11
45.1
21
-2
0
LINE
8
0
6
CONTINUOUS
10
45.1
20
-2
11
45.1
21
12
0
LINE
8
0
6
CONTINUOUS
10
45.1
20
12
11
31.1
21
12
0
LINE
8
0
6
CONTINUOUS
10
31.1
20
12
11
31.1
21
-2
0
LINE
8
0
6
CONTINUOUS
10
31.1
20
17.05
11
45.1
21
17.05
0
LINE
8
0
6
CONTINUOUS
10
45.1
20
17.05
11
45.1
21
31.05
0
LINE
8
0
6
CONTINUOUS
10
45.1
20
31.05
11
31.1
21
31.05
0
LINE
8
0
6
CONTINUOUS
10
31.1
20
31.05
11
31.1
21
17.05
0
LINE
8
0
6
CONTINUOUS
10
31.1
20
36.1
11
45.1
21
36.1
0
LINE
8
0
6
CONTINUOUS
10
45.1
20
36.1
11
45.1
21
50.1
0
LINE
8
0
6
CONTINUOUS
10
45.1
20
50.1
11
31.1
21
50.1
0
LINE
8
0
6
CONTINUOUS
10
31.1
20
50.1
11
31.1
21
36.1
0
LINE
8
0
6
CONTINUOUS
10
50.15
20
1
11
64.15
21
1
0
LINE
8
0
6
CONTINUOUS
10
64.15
20
1
11
64.15
21
15
0
LINE
8
0
6
CONTINUOUS
10
64.15
20
15
11
50.15
21
15
0
LINE
8
0
6
CONTINUOUS
10
50.15
20
15
11
50.15
21
1
0
LINE
8
0
6
CONTINUOUS
10
50.15
20
20.05
11
64.15
21
20.05
0
LINE
8
0
6
CONTINUOUS
10
64.15
20
20.05
11
64.15
21
34.05
0
LINE
8
0
6
CONTINUOUS
10
64.15
20
34.05
11
50.15
21
34.05
0
LINE
8
0
6
CONTINUOUS
10
50.15
20
34.05
11
50.15
21
20.05
0
LINE
8
0
6
CONTINUOUS
10
50.15
20
39.1
11
64.15
21
39.1
0
LINE
8
0
6
CONTINUOUS
10
64.15
20
39.1
11
64.15
21
53.1
0
LINE
8
0
6
CONTINUOUS
10
64.15
20
53.1
11
50.15
21
53.1
0
LINE
8
0
6
CONTINUOUS
10
50.15
20
53.1
11
50.15
21
39.1
0
LINE
8
0
6
CONTINUOUS
10
69.2
20
-2
11
83.2
21
-2
0
LINE
8
0
6
CONTINUOUS
10
83.2
20
-2
11
83.2
21
12
0
LINE
8
0
6
CONTINUOUS
10
83.2
20
12
11
69.2
21
12
0
LINE
8
0
6
CONTINUOUS
10
69.2
20
12
11
69.2
21
-2
0
LINE
8
0
6
CONTINUOUS
10
69.2
20
17.05
11
83.2
21
17.05
0
LINE
8
0
6
CONTINUOUS
10
83.2
20
17.05
11
83.2
21
31.05
0
LINE
8
0
6
CONTINUOUS
10
83.2
20
31.05
11
69.2
21
31.05
0
LINE
8
0
6
CONTINUOUS
10
69.2
20
31.05
11
69.2
21
17.05
0
LINE
8
0
6
CONTINUOUS
10
69.2
20
36.1
11
83.2
21
36.1
0
LINE
8
0
6
CONTINUOUS
10
83.2
20
36.1
11
83.2
21
50.1
0
LINE
8
0
6
CONTINUOUS
10
83.2
20
50.1
11
69.2
21
50.1
0
LINE
8
0
6
CONTINUOUS
10
69.2
20
50.1
11
69.2
21
36.1
0
LINE
8
0
6
CONTINUOUS
10
88.25
20
-4
11
102.25
21
-4
0
LINE
8
0
6
CONTINUOUS
10
102.25
20
-4
11
102.25
21
10
0
LINE
8
0
6
CONTINUOUS
10
102.25
20
10
11
88.25
21
10
0
LINE
8
0
6
CONTINUOUS
10
88.25
20
10
11
88.25
21
-4
0
LINE
8
0
6
CONTINUOUS
10
88.25
20
15.05
11
102.25
21
15.05
0
LINE
8
0
6
CONTINUOUS
10
102.25
20
15.05
11
102.25
21
29.05
0
LINE
8
0
6
CONTINUOUS
10
102.25
20
29.05
11
88.25
21
29.05
0
LINE
8
0
6
CONTINUOUS
10
88.25
20
29.05
11
88.25
21
15.05
0
LINE
8
0
6
CONTINUOUS
10
88.25
20
34.1
11
102.25
21
34.1
0
LINE
8
0
6
CONTINUOUS
10
102.25
20
34.1
11
102.25
21
48.1
0
LINE
8
0
6
CONTINUOUS
10
102.25
20
48.1
11
88.25
21
48.1
0
LINE
8
0
6
CONTINUOUS
10
88.25
20
48.1
11
88.25
21
34.1
0
LINE
8
0
6
CONTINUOUS
10
50.15
20
-24.05
11
64.15
21
-24.05
0
LINE
8
0
6
CONTINUOUS
10
64.15
20
-24.05
11
64.15
21
-10.05
0
LINE
8
0
6
CONTINUOUS
10
64.15
20
-10.05
11
50.15
21
-10.05
0
LINE
8
0
6
CONTINUOUS
10
50.15
20
-10.05
11
50.15
21
-24.05
0
LINE
8
0
6
CONTINUOUS
10
69.2
20
-24.05
11
83.2
21
-24.05
0
LINE
8
0
6
CONTINUOUS
10
83.2
20
-24.05
11
83.2
21
-10.05
0
LINE
8
0
6
CONTINUOUS
10
83.2
20
-10.05
11
69.2
21
-10.05
0
LINE
8
0
6
CONTINUOUS
10
69.2
20
-10.05
11
69.2
21
-24.05
0
LINE
8
0
6
CONTINUOUS
10
88.8174808
20
-24.7895554
11
102.3404424
21
-28.413022
0
LINE
8
0
6
CONTINUOUS
10
102.3404424
20
-28.413022
11
105.963909
21
-14.8900604
0
LINE
8
0
6
CONTINUOUS
10
105.963909
20
-14.8900604
11
92.4409474
21
-11.2665938
0
LINE
8
0
6
CONTINUOUS
10
92.4409474
20
-11.2665938
11
88.8174808
21
-24.7895554
0
LINE
8
0
6
CONTINUOUS
10
225.55
20
-7
11
239.55
21
-7
0
LINE
8
0
6
CONTINUOUS
10
239.55
20
-7
11
239.55
21
7
0
LINE
8
0
6
CONTINUOUS
10
239.55
20
7
11
225.55
21
7
0
LINE
8
0
6
CONTINUOUS
10
225.55
20
7
11
225.55
21
-7
0
LINE
8
0
6
CONTINUOUS
10
225.55
20
12.05
11
239.55
21
12.05
0
LINE
8
0
6
CONTINUOUS
10
239.55
20
12.05
11
239.55
21
26.05
0
LINE
8
0
6
CONTINUOUS
10
239.55
20
26.05
11
225.55
21
26.05
0
LINE
8
0
6
CONTINUOUS
10
225.55
20
26.05
11
225.55
21
12.05
0
LINE
8
0
6
CONTINUOUS
10
225.55
20
31.1
11
239.55
21
31.1
0
LINE
8
0
6
CONTINUOUS
10
239.55
20
31.1
11
239.55
21
45.1
0
LINE
8
0
6
CONTINUOUS
10
239.55
20
45.1
11
225.55
21
45.1
0
LINE
8
0
6
CONTINUOUS
10
225.55
20
45.1
11
225.55
21
31.1
0
LINE
8
0
6
CONTINUOUS
10
206.5
20
-7
11
220.5
21
-7
0
LINE
8
0
6
CONTINUOUS
10
220.5
20
-7
11
220.5
21
7
0
LINE
8
0
6
CONTINUOUS
10
220.5
20
7
11
206.5
21
7
0
LINE
8
0
6
CONTINUOUS
10
206.5
20
7
11
206.5
21
-7
0
LINE
8
0
6
CONTINUOUS
10
206.5
20
12.05
11
220.5
21
12.05
0
LINE
8
0
6
CONTINUOUS
10
220.5
20
12.05
11
220.5
21
26.05
0
LINE
8
0
6
CONTINUOUS
10
220.5
20
26.05
11
206.5
21
26.05
0
LINE
8
0
6
CONTINUOUS
10
206.5
20
26.05
11
206.5
21
12.05
0
LINE
8
0
6
CONTINUOUS
10
206.5
20
31.1
11
220.5
21
31.1
0
LINE
8
0
6
CONTINUOUS
10
220.5
20
31.1
11
220.5
21
45.1
0
LINE
8
0
6
CONTINUOUS
10
220.5
20
45.1
11
206.5
21
45.1
0
LINE
8
0
6
CONTINUOUS
10
206.5
20
45.1
11
206.5
21
31.1
0
LINE
8
0
6
CONTINUOUS
10
187.45
20
-2
11
201.45
21
-2
0
LINE
8
0
6
CONTINUOUS
10
201.45
20
-2
11
201.45
21
12
0
LINE
8
0
6
CONTINUOUS
10
201.45
20
12
11
187.45
21
12
0
LINE
8
0
6
CONTINUOUS
10
187.45
20
12
11
187.45
21
-2
0
LINE
8
0
6
CONTINUOUS
10
187.45
20
17.05
11
201.45
21
17.05
0
LINE
8
0
6
CONTINUOUS
10
201.45
20
17.05
11
201.45
21
31.05
0
LINE
8
0
6
CONTINUOUS
10
201.45
20
31.05
11
187.45
21
31.05
0
LINE
8
0
6
CONTINUOUS
10
187.45
20
31.05
11
187.45
21
17.05
0
LINE
8
0
6
CONTINUOUS
10
187.45
20
36.1
11
201.45
21
36.1
0
LINE
8
0
6
CONTINUOUS
10
201.45
20
36.1
11
201.45
21
50.1
0
LINE
8
0
6
CONTINUOUS
10
201.45
20
50.1
11
187.45
21
50.1
0
LINE
8
0
6
CONTINUOUS
10
187.45
20
50.1
11
187.45
21
36.1
0
LINE
8
0
6
CONTINUOUS
10
168.4
20
1
11
182.4
21
1
0
LINE
8
0
6
CONTINUOUS
10
182.4
20
1
11
182.4
21
15
0
LINE
8
0
6
CONTINUOUS
10
182.4
20
15
11
168.4
21
15
0
LINE
8
0
6
CONTINUOUS
10
168.4
20
15
11
168.4
21
1
0
LINE
8
0
6
CONTINUOUS
10
168.4
20
20.05
11
182.4
21
20.05
0
LINE
8
0
6
CONTINUOUS
10
182.4
20
20.05
11
182.4
21
34.05
0
LINE
8
0
6
CONTINUOUS
10
182.4
20
34.05
11
168.4
21
34.05
0
LINE
8
0
6
CONTINUOUS
10
168.4
20
34.05
11
168.4
21
20.05
0
LINE
8
0
6
CONTINUOUS
10
168.4
20
39.1
11
182.4
21
39.1
0
LINE
8
0
6
CONTINUOUS
10
182.4
20
39.1
11
182.4
21
53.1
0
LINE
8
0
6
CONTINUOUS
10
182.4
20
53.1
11
168.4
21
53.1
0
LINE
8
0
6
CONTINUOUS
10
168.4
20
53.1
11
168.4
21
39.1
0
LINE
8
0
6
CONTINUOUS
10
149.35
20
-2
11
163.35
21
-2
0
LINE
8
0
6
CONTINUOUS
10
163.35
20
-2
11
163.35
21
12
0
LINE
8
0
6
CONTINUOUS
10
163.35
20
12
11
149.35
21
12
0
LINE
8
0
6
CONTINUOUS
10
149.35
20
12
11
149.35
21
-2
0
LINE
8
0
6
CONTINUOUS
10
149.35
20
17.05
11
163.35
21
17.05
0
LINE
8
0
6
CONTINUOUS
10
163.35
20
17.05
11
163.35
21
31.05
0
LINE
8
0
6
CONTINUOUS
10
163.35
20
31.05
11
149.35
21
31.05
0
LINE
8
0
6
CONTINUOUS
10
149.35
20
31.05
11
149.35
21
17.05
0
LINE
8
0
6
CONTINUOUS
10
149.35
20
36.1
11
163.35
21
36.1
0
LINE
8
0
6
CONTINUOUS
10
163.35
20
36.1
11
163.35
21
50.1
0
LINE
8
0
6
CONTINUOUS
10
163.35
20
50.1
11
149.35
21
50.1
0
LINE
8
0
6
CONTINUOUS
10
149.35
20
50.1
11
149.35
21
36.1
0
LINE
8
0
6
CONTINUOUS
10
130.3
20
-4
11
144.3
21
-4
0
LINE
8
0
6
CONTINUOUS
10
144.3
20
-4
11
144.3
21
10
0
LINE
8
0
6
CONTINUOUS
10
144.3
20
10
11
130.3
21
10
0
LINE
8
0
6
CONTINUOUS
10
130.3
20
10
11
130.3
21
-4
0
LINE
8
0
6
CONTINUOUS
10
130.3
20
15.05
11
144.3
21
15.05
0
LINE
8
0
6
CONTINUOUS
10
144.3
20
15.05
11
144.3
21
29.05
0
LINE
8
0
6
CONTINUOUS
10
144.3
20
29.05
11
130.3
21
29.05
0
LINE
8
0
6
CONTINUOUS
10
130.3
20
29.05
11
130.3
21
15.05
0
LINE
8
0
6
CONTINUOUS
10
130.3
20
34.1
11
144.3
21
34.1
0
LINE
8
0
6
CONTINUOUS
10
144.3
20
34.1
11
144.3
21
48.1
0
LINE
8
0
6
CONTINUOUS
10
144.3
20
48.1
11
130.3
21
48.1
0
LINE
8
0
6
CONTINUOUS
10
130.3
20
48.1
11
130.3
21
34.1
0
LINE
8
0
6
CONTINUOUS
10
168.4
20
-24.05
11
182.4
21
-24.05
0
LINE
8
0
6
CONTINUOUS
10
182.4
20
-24.05
11
182.4
21
-10.05
0
LINE
8
0
6
CONTINUOUS
10
182.4
20
-10.05
11
168.4
21
-10.05
0
LINE
8
0
6
CONTINUOUS
10
168.4
20
-10.05
11
168.4
21
-24.05
0
LINE
8
0
6
CONTINUOUS
10
149.35
20
-24.05
11
163.35
21
-24.05
0
LINE
8
0
6
CONTINUOUS
10
163.35
20
-24.05
11
163.35
21
-10.05
0
LINE
8
0
6
CONTINUOUS
10
163.35
20
-10.05
11
149.35
21
-10.05
0
LINE
8
0
6
CONTINUOUS
10
149.35
20
-10.05
11
149.35
21
-24.05
0
LINE
8
0
6
CONTINUOUS
10
130.2095576
20
-28.413022
11
143.7325192
21
-24.7895554
0
LINE
8
0
6
CONTINUOUS
10
143.7325192
20
-24.7895554
11
140.1090526
21
-11.2665938
0
LINE
8
0
6
CONTINUOUS
10
140.1090526
20
-11.2665938
11
126.586091
21
-14.8900604
0
LINE
8
0
6
CONTINUOUS
10
126.586091
20
-14.8900604
11
130.2095576
21
-28.413022
0
ENDSEC
0
EOF